<svg width="64" height="64" viewBox="0 0 64 64" fill="none" xmlns="http://www.w3.org/2000/svg">
<rect width="64" height="64" rx="8" fill="white"/>
<path d="M51.9962 32.1619C51.9962 37.4234 49.8892 42.4694 46.1389 46.1899C42.3885 49.9103 37.3019 52.0004 31.9981 52.0004C26.6943 52.0004 21.6077 49.9103 17.8573 46.1899C14.1069 42.4694 12 37.4234 12 32.1619C12.0588 34.4376 12.7479 36.6533 13.9918 38.5662C15.2357 40.4791 16.9865 42.0154 19.0522 43.0067C21.1178 43.9981 23.4187 44.4062 25.7027 44.1864C27.9867 43.9666 30.1656 43.1273 32.0007 41.7605C33.8357 43.1264 36.0143 43.9649 38.2978 44.1841C40.5812 44.4033 42.8815 43.9949 44.9465 43.0035C47.0115 42.0121 48.7616 40.4759 50.0051 38.5634C51.2486 36.6509 51.9374 34.4357 51.9962 32.1606V32.1619Z" fill="url(#paint0_linear)"/>
<path d="M51.9962 32.1619C51.9962 37.4234 49.8892 42.4694 46.1389 46.1899C42.3885 49.9103 37.3019 52.0004 31.9981 52.0004C26.6943 52.0004 21.6077 49.9103 17.8573 46.1899C14.1069 42.4694 12 37.4234 12 32.1619C12.0588 34.4376 12.7479 36.6533 13.9918 38.5662C15.2357 40.4791 16.9865 42.0154 19.0522 43.0067C21.1178 43.9981 23.4187 44.4062 25.7027 44.1864C27.9867 43.9666 30.1656 43.1273 32.0007 41.7605C33.8357 43.1264 36.0143 43.9649 38.2978 44.1841C40.5812 44.4033 42.8815 43.9949 44.9465 43.0035C47.0115 42.0121 48.7616 40.4759 50.0051 38.5634C51.2486 36.6509 51.9374 34.4357 51.9962 32.1606V32.1619Z" fill="url(#paint1_linear)"/>
<path d="M51.9962 32.1619C51.9962 37.4234 49.8892 42.4694 46.1389 46.1899C42.3885 49.9103 37.3019 52.0004 31.9981 52.0004C26.6943 52.0004 21.6077 49.9103 17.8573 46.1899C14.1069 42.4694 12 37.4234 12 32.1619C12.0588 34.4376 12.7479 36.6533 13.9918 38.5662C15.2357 40.4791 16.9865 42.0154 19.0522 43.0067C21.1178 43.9981 23.4187 44.4062 25.7027 44.1864C27.9867 43.9666 30.1656 43.1273 32.0007 41.7605C33.8357 43.1264 36.0143 43.9649 38.2978 44.1841C40.5812 44.4033 42.8815 43.9949 44.9465 43.0035C47.0115 42.0121 48.7616 40.4759 50.0051 38.5634C51.2486 36.6509 51.9374 34.4357 51.9962 32.1606V32.1619Z" fill="url(#paint2_linear)"/>
<path d="M51.9999 12V31.8411C51.9999 31.9475 51.9999 32.0553 51.9999 32.1605C51.9414 34.4361 51.2525 36.6518 50.0087 38.5648C48.765 40.4778 47.0143 42.0142 44.9487 43.0056C42.8831 43.997 40.5822 44.4051 38.2982 44.1852C36.0143 43.9653 33.8354 43.126 32.0005 41.7591C33.5544 40.6056 34.8156 39.1083 35.6836 37.3863C36.5516 35.6643 37.0026 33.7651 37.0007 31.8398V12H51.9999Z" fill="white"/>
<path d="M51.9999 12V31.8411C51.9999 31.9475 51.9999 32.0553 51.9999 32.1605C51.9414 34.4361 51.2525 36.6518 50.0087 38.5648C48.765 40.4778 47.0143 42.0142 44.9487 43.0056C42.8831 43.997 40.5822 44.4051 38.2982 44.1852C36.0143 43.9653 33.8354 43.126 32.0005 41.7591C33.5544 40.6056 34.8156 39.1083 35.6836 37.3863C36.5516 35.6643 37.0026 33.7651 37.0007 31.8398V12H51.9999Z" fill="#1B29C4"/>
<path d="M32.0007 41.7591C30.1656 43.1258 27.9867 43.9651 25.7027 44.1849C23.4187 44.4048 21.1178 43.9966 19.0522 43.0053C16.9865 42.014 15.2357 40.4776 13.9918 38.5647C12.7479 36.6518 12.0588 34.4361 12 32.1605C12 32.0553 12 31.9476 12 31.8411V12H26.9992V31.8411C26.9976 33.7663 27.4489 35.6653 28.3171 37.3871C29.1854 39.1088 30.4467 40.6059 32.0007 41.7591Z" fill="#367DED"/>
<defs>
<linearGradient id="paint0_linear" x1="12.0039" y1="41.9221" x2="51.9962" y2="41.9221" gradientUnits="userSpaceOnUse">
<stop stop-color="#1B35D3"/>
<stop offset="1" stop-color="#4D97F3"/>
</linearGradient>
<linearGradient id="paint1_linear" x1="12.0039" y1="41.9221" x2="51.9962" y2="41.9221" gradientUnits="userSpaceOnUse">
<stop stop-color="#4D97F3"/>
<stop offset="1" stop-color="white"/>
</linearGradient>
<linearGradient id="paint2_linear" x1="12.0039" y1="41.9221" x2="51.9962" y2="41.9221" gradientUnits="userSpaceOnUse">
<stop stop-color="#1B35D3"/>
<stop offset="1" stop-color="#4D97F3"/>
</linearGradient>
</defs>
</svg>
