<svg width="136" height="32" viewBox="0 0 136 32" fill="none" xmlns="http://www.w3.org/2000/svg" className="Logo__Desktop">
<g clip-path="url(#clip0)">
<path d="M98.1434 0H95.2652V23.7576H98.1434V0Z" fill="black"/>
<path fill-rule="evenodd" clip-rule="evenodd" d="M91.38 13.6727C90.7332 12.6815 89.8169 11.938 88.6311 11.4424C89.4504 10.9683 90.0864 10.3111 90.5391 9.47071C91.0134 8.6303 91.2506 7.67138 91.2506 6.59394C91.2506 5.49495 90.9811 4.48215 90.4421 3.55556C89.9247 2.62896 89.1593 1.88552 88.146 1.32525C87.1543 0.764983 85.9901 0.484848 84.6534 0.484848H75.5661V23.7576H85.4619C87.5963 23.7576 89.2779 23.165 90.5068 21.9798C91.7572 20.7731 92.3825 19.1461 92.3825 17.099C92.3825 15.8061 92.0483 14.664 91.38 13.6727ZM84.6211 10.1818H78.4766V3.2H84.6211C85.699 3.2 86.583 3.52323 87.2729 4.1697C87.9628 4.79461 88.3077 5.60269 88.3077 6.59394C88.3077 7.67138 87.952 8.54411 87.2405 9.21212C86.5291 9.85859 85.6559 10.1818 84.6211 10.1818ZM88.146 19.9434C87.3052 20.6545 86.2272 21.0101 84.9121 21.0101H78.4766V12.897H85.2355C86.4428 12.897 87.4346 13.2956 88.2107 14.0929C89.0084 14.8902 89.4073 15.8815 89.4073 17.0667C89.4073 18.2734 88.9869 19.2323 88.146 19.9434Z" fill="black"/>
<path fill-rule="evenodd" clip-rule="evenodd" d="M109.786 24.2424C108.083 24.2424 106.595 23.8545 105.323 23.0788C104.051 22.303 103.071 21.2148 102.381 19.8141C101.712 18.4135 101.378 16.8081 101.378 14.998C101.378 13.1879 101.723 11.5933 102.413 10.2141C103.103 8.81347 104.084 7.73603 105.356 6.98182C106.628 6.20606 108.105 5.81818 109.786 5.81818C111.511 5.81818 113.009 6.20606 114.281 6.98182C115.553 7.75757 116.524 8.84579 117.192 10.2465C117.882 11.6256 118.227 13.2094 118.227 14.998C118.227 16.8296 117.882 18.4458 117.192 19.8465C116.502 21.2256 115.521 22.303 114.249 23.0788C112.977 23.8545 111.489 24.2424 109.786 24.2424ZM109.786 21.4949C111.554 21.4949 112.891 20.9131 113.796 19.7495C114.702 18.5643 115.155 16.9805 115.155 14.998C115.155 12.9939 114.691 11.4209 113.764 10.2788C112.859 9.11515 111.533 8.53333 109.786 8.53333C108.018 8.53333 106.682 9.11515 105.776 10.2788C104.892 11.4424 104.45 13.0155 104.45 14.998C104.45 17.0236 104.903 18.6182 105.809 19.7818C106.736 20.9239 108.062 21.4949 109.786 21.4949Z" fill="black"/>
<path fill-rule="evenodd" clip-rule="evenodd" d="M136 23.8869V6.30303H133.445V8.24242C132.109 6.62626 130.287 5.81818 127.98 5.81818C126.406 5.81818 125.026 6.21683 123.84 7.01414C122.655 7.81145 121.738 8.91044 121.092 10.3111C120.466 11.6902 120.154 13.2525 120.154 14.998C120.154 16.7434 120.466 18.3165 121.092 19.7172C121.738 21.1178 122.644 22.2276 123.808 23.0465C124.994 23.8438 126.384 24.2424 127.98 24.2424C130.071 24.2424 131.785 23.5421 133.122 22.1414V23.8545C133.165 27.4316 131.526 29.2202 128.206 29.2202C127.301 29.2202 126.46 29.0155 125.684 28.6061C124.908 28.2182 124.326 27.6148 123.937 26.796L121.286 28.1859C121.997 29.4357 122.967 30.3838 124.196 31.0303C125.425 31.6768 126.762 32 128.206 32C130.341 32 132.055 31.5475 133.348 30.6424C134.663 29.7589 135.483 28.4013 135.806 26.5697C135.935 25.8801 136 24.9859 136 23.8869ZM132.152 19.8141C131.311 20.9993 130.039 21.5919 128.336 21.5919C126.676 21.5919 125.404 20.9778 124.52 19.7495C123.657 18.5212 123.226 16.9374 123.226 14.998C123.226 13.0586 123.668 11.4855 124.552 10.2788C125.436 9.0505 126.729 8.43636 128.433 8.43636C130.071 8.43636 131.311 9.02895 132.152 10.2141C133.014 11.3993 133.445 12.9939 133.445 14.998C133.445 17.002 133.014 18.6074 132.152 19.8141Z" fill="black"/>
<path d="M4.34744 22.9359C5.73449 23.6627 7.3182 24.0261 9.09858 24.0261C10.879 24.0261 12.4523 23.6627 13.8187 22.9359C15.2057 22.2091 16.2822 21.1708 17.0482 19.8209C17.8142 18.4711 18.1972 16.9136 18.1972 15.1485V1.13111H13.9118V15.1173C13.9118 16.0726 13.6944 16.924 13.2597 17.6716C12.8457 18.4192 12.2764 19.0007 11.5518 19.416C10.8272 19.8313 10.0095 20.039 9.09858 20.039C8.20839 20.039 7.39065 19.8313 6.64538 19.416C5.9208 19.0007 5.34115 18.4192 4.9064 17.6716C4.49236 16.924 4.28534 16.0726 4.28534 15.1173V1.13111L0 1.16226V15.1485C0 16.9136 0.382989 18.4711 1.14897 19.8209C1.91495 21.1708 2.9811 22.2091 4.34744 22.9359Z" fill="black"/>
<path fill-rule="evenodd" clip-rule="evenodd" d="M36.4835 24.7114V6.73806H32.7882V7.67255C31.6289 6.73806 30.1901 6.27081 28.4718 6.27081C26.8984 6.27081 25.5114 6.65499 24.3107 7.42335C23.1099 8.17094 22.1783 9.21965 21.5159 10.5695C20.8534 11.9193 20.5222 13.4456 20.5222 15.1485C20.5222 16.8306 20.8431 18.3465 21.4848 19.6963C22.1473 21.0462 23.0582 22.1052 24.2175 22.8736C25.3975 23.642 26.7432 24.0261 28.2544 24.0261C29.8071 24.0261 31.1424 23.6731 32.2603 22.9671V24.6491C32.281 25.5421 31.9394 26.2378 31.2355 26.7362C30.5316 27.2346 29.6725 27.4838 28.6581 27.4838C28.0577 27.4838 27.4988 27.3488 26.9812 27.0788C26.4844 26.8089 26.1117 26.4351 25.8633 25.9574L21.9506 27.8576C22.5924 28.9582 23.5136 29.8408 24.7143 30.5053C25.9151 31.1698 27.2193 31.5021 28.6271 31.5021C30.5523 31.5021 32.1982 31.1179 33.5645 30.3495C34.9515 29.6019 35.8417 28.4806 36.2351 26.9854C36.4007 26.3416 36.4835 25.5836 36.4835 24.7114ZM32.7882 15.1485C32.7882 18.5542 31.5046 20.257 28.9376 20.257C27.6333 20.257 26.65 19.7898 25.9875 18.8553C25.3251 17.9 24.9938 16.6644 24.9938 15.1485C24.9938 13.6533 25.3354 12.4281 26.0186 11.4728C26.7225 10.5176 27.7472 10.0399 29.0928 10.0399C30.3557 10.0399 31.2873 10.4968 31.8876 11.4105C32.488 12.3035 32.7882 13.5495 32.7882 15.1485Z" fill="black"/>
<path fill-rule="evenodd" clip-rule="evenodd" d="M43.3559 16.3322C43.5215 17.5366 43.9355 18.4607 44.598 19.1045C45.2605 19.7483 46.161 20.0701 47.2996 20.0701C48.1277 20.0701 48.8316 19.8936 49.4112 19.5406C50.0116 19.1668 50.467 18.6372 50.7776 17.952L55.0008 19.1668C54.3797 20.6827 53.386 21.8768 52.0197 22.749C50.6741 23.6004 49.1835 24.0261 47.548 24.0261C45.8505 24.0261 44.3392 23.6627 43.0143 22.9359C41.6893 22.1883 40.6542 21.1604 39.909 19.8521C39.1844 18.523 38.8221 17.0278 38.8221 15.3665C38.8221 13.5598 39.174 11.9712 39.8779 10.6006C40.6025 9.20927 41.6065 8.13979 42.8901 7.3922C44.1736 6.64461 45.6434 6.27081 47.2996 6.27081C48.9144 6.27081 50.3118 6.63422 51.4918 7.36105C52.6925 8.06711 53.6138 9.08467 54.2555 10.4137C54.8973 11.7428 55.2182 13.3003 55.2182 15.0862C55.2182 15.3354 55.1975 15.7507 55.1561 16.3322H43.3559ZM47.4859 9.94648C45.2501 9.94648 43.9148 11.0263 43.4801 13.186H50.8707C50.7258 12.0647 50.3739 11.2444 49.8149 10.7252C49.2767 10.2061 48.5003 9.94648 47.4859 9.94648Z" fill="black"/>
<path d="M62.7854 17.1732V10.0088H67.6296V6.73806H62.7854V2.0656H58.5621V6.73806H55.7052V10.0088H58.5621V17.952C58.5621 18.7203 58.6035 19.3745 58.6863 19.9144C58.7691 20.4335 58.9555 20.9527 59.2453 21.4719C59.7007 22.3025 60.3943 22.9151 61.3259 23.3097C62.2575 23.6835 63.3547 23.8704 64.6175 23.8704C65.487 23.8704 66.491 23.7666 67.6296 23.5589V20.039C66.8637 20.1428 66.2012 20.1947 65.6422 20.1947C65.0419 20.1947 64.5243 20.122 64.0896 19.9767C63.6755 19.8313 63.3547 19.5717 63.1269 19.1979C63.0027 19.011 62.9096 18.7515 62.8475 18.4192C62.8061 18.0869 62.7854 17.6716 62.7854 17.1732Z" fill="black"/>
</g>
<defs>
<clipPath id="clip0">
<rect width="136" height="32" fill="white"/>
</clipPath>
</defs>
</svg>
